<svg width="282" height="404" viewBox="0 0 282 404" xmlns="http://www.w3.org/2000/svg">
    <path d="M89.073 384.868c7.614-52.905 12.078-80.035 13.393-81.39 1.972-2.03 6.978-2.985 8.75-4.972 1.77-1.988-5.41-8.682-5.41-11.92 0-2.159 10.535-2.715 31.605-1.67l-7.265-3.878v1.748l-15.262-4.79c-3.918 2.028-8.556 3.042-13.915 3.042-5.358 0-12.978-3.924-22.86-11.773-3.566-6.663-7.218-11.726-10.955-15.189-5.605-5.194-16.925-12.897-20.813-16.51-3.888-3.614-7.976-18.113-12.123-23.277-4.147-5.164-19.751-17.311-19.751-22.557v-27.489c0-4.166-5.409-17.046-9.32-20.551-2.608-2.337-4.323-3.985-5.147-4.944 3.006-2.843 6.168-4.264 9.488-4.264 4.979 0 19.428 4.732 24.73 12.213 3.535 4.987 1.888 13.176-4.94 24.566 6.232-4.006 11.433-5.007 15.603-3.004 6.253 3.004 15.714 7.825 18.994 11.546 2.186 2.481 5.008 6.457 8.466 11.927l2.498-3.664 26.13 22.677 1.497-8.733 8.75 8.733c-1.804-10.368-5.22-17.263-10.247-20.683-5.027-3.42-11.5-5.339-19.42-5.756 10.48-15.948 16.338-26.204 17.571-30.766 1.85-6.843 0-16.732 0-23.316 0-6.585 6.356-16.076 4.85-24.539-1.003-5.641-3.317-11.438-6.943-17.39 2.247.299 5.174-.59 8.78-2.667 3.605-2.077 5.408-3.972 5.408-5.685-6.347 2.085-11.076 2.606-14.188 1.563-3.112-1.042-5.208-2.676-6.286-4.902-.524-13.206.393-22.122 2.75-26.748 2.357-4.626 5.85-7.876 10.48-9.75l-6.944-4.276c1.63-14.763 2.945-23.226 3.942-25.39 1.497-3.248 3.168-8.288 7.815-8.288s12.237 3.586 14.278 12.379c1.36 5.861.746 19.272-1.843 40.232 5.55 35.362 14.061 53.043 25.533 53.043 11.473 0 15.065-12.653 10.776-37.96l4.959-4.339 8.982 1.85 5.148-6.8h-17.244c0-12.267 1.038-19.084 3.114-20.45 2.076-1.366 3.87-2.123 5.382-2.27l-5.382-3.95c1.188-1.296 2.981-1.296 5.382 0 2.4 1.295 4.413 1.295 6.038 0-7.613-3.87-11.42-7.535-11.42-10.994 0-3.46.53-10.373 1.59-20.741L167.87 0c12.389 13.45 18.583 25.394 18.583 35.83 0 15.653-4.38 48.402-4.38 54.346 0 5.944-.226 19.907 7.963 24.762 8.19 4.854 18.531 3.591 21.123 0 2.592-3.592 4.178-12.35 6.59-14.418 1.61-1.378 3.824-2.346 6.646-2.906-2.272-1.927-2.84-4.406-1.704-7.438s5.031-4.548 11.687-4.548c-8.171-3.617-12.985-7.567-14.442-11.848-1.458-4.282.029-12.257 4.459-23.924 1.737-1.604 3.377-1.604 4.922 0 2.317 2.406 9.751 17.793 13.426 19.99 3.674 2.197 3.116 9.024 3.116 11.66 0 2.637-23.168 55.259-23.168 60.225 0 4.966-1.716 12.707 1.704 15.222 3.42 2.514 26.564-7.25 29.274-10.256 2.71-3.005 3.777-10.02 6.763-10.02h12.494c-6.394-1.59-10.075-3.74-11.043-6.453-1.451-4.07-2.507-10.79 0-15.286 2.507-4.495 4.316-9.253 7.68-9.253 3.363 0 1.477 5.253 3.363 9.253S282 123.77 282 130.224c0 6.453-14.88 35.03-18.225 38.035-3.344 3.004-21.066 17.273-25.232 24.175-4.166 6.902-16.02 53.37-20.794 61.642-4.775 8.271-10.573 15.565-14.872 17.36-2.866 1.195-7.147 3.382-12.842 6.56 3.96 6.496 5.335 12.638 4.127 18.427-1.811 8.683-9.052 10.824-12.09 18.761-2.024 5.291-3.842 34.897-5.455 88.816l-87.544-19.132z" fill="#6000D6" fill-rule="evenodd" fill-opacity=".6"/>
</svg>
