<?xml version="1.0" encoding="UTF-8"?>
<svg width="282px" height="404px" viewBox="0 0 282 404" version="1.1" xmlns="http://www.w3.org/2000/svg" xmlns:xlink="http://www.w3.org/1999/xlink">
    <!-- Generator: Sketch 57.1 (83088) - https://sketch.com -->
    <title>Icon / XLarge / Hand Logo</title>
    <desc>Created with Sketch.</desc>
    <g id="Icon-/-XLarge-/-Hand-Logo" stroke="none" stroke-width="1" fill="none" fill-rule="evenodd" fill-opacity="0.6">
        <path d="M89.0734057,384.867738 C96.6865556,331.96255 101.150606,304.832879 102.465557,303.478726 C104.437984,301.447496 109.443967,300.4934 111.215126,298.505792 C112.986285,296.518184 105.806607,289.82385 105.806607,286.585738 C105.806607,284.426997 116.34125,283.870721 137.410537,284.916908 L130.145503,281.037886 L130.145503,282.78613 L114.883795,277.995515 C110.965777,280.023762 106.327667,281.037886 100.969465,281.037886 C95.6112624,281.037886 87.9914037,277.113749 78.1098885,269.265477 C74.5429717,262.602088 70.891075,257.538927 67.1541984,254.075993 C61.5488836,248.881592 50.2286747,241.179472 46.3408472,237.565539 C42.4530196,233.951605 38.3650422,219.453366 34.2178025,214.289165 C30.0705628,209.124964 14.4666992,196.977851 14.4666992,191.731998 C14.4666992,186.486146 14.4666992,168.409765 14.4666992,164.243283 C14.4666992,160.076801 9.05817979,147.197059 5.14687095,143.691621 C2.53933172,141.354663 0.823708074,139.706712 0,138.747768 C3.00560267,135.90524 6.16811987,134.483975 9.4875516,134.483975 C14.4666992,134.483975 28.9155079,139.216428 34.2178025,146.697081 C37.7526655,151.684183 36.1059948,159.872858 29.2777903,171.263107 C35.5103905,167.257318 40.7113057,166.255871 44.8805358,168.258765 C51.1343809,171.263107 60.5950968,176.083922 63.8746476,179.805234 C66.0610148,182.286108 68.88324,186.261696 72.341323,191.731998 L74.839283,188.067731 L100.969465,210.744579 L102.465557,202.012304 L111.215126,210.744579 C109.411914,200.376657 105.996693,193.48248 100.969465,190.06205 C95.9422365,186.64162 89.4684874,184.722988 81.5482175,184.306153 C92.0298096,168.357568 97.8870821,158.102243 99.1200352,153.540178 C100.969465,146.697081 99.1200352,136.808257 99.1200352,130.223538 C99.1200352,123.638818 105.475633,114.148187 103.970595,105.685475 C102.967236,100.043667 100.652654,94.246757 97.0268476,88.2947463 C99.2743407,88.5937636 102.200927,87.7049141 105.806607,85.6281977 C109.412286,83.5514814 111.215126,81.6563379 111.215126,79.9427673 C104.868474,82.0276861 100.139048,82.5489158 97.0268476,81.5064564 C93.9146474,80.463997 91.8192236,78.8298412 90.740576,76.603989 C90.2172791,63.3980118 91.1341668,54.4819265 93.4912391,49.8557332 C95.8483115,45.22954 99.34143,41.9798704 103.970595,40.1067244 L97.0268476,35.829509 C98.6578642,21.0672994 99.9720699,12.6038414 100.969465,10.4391349 C102.465557,7.19207513 104.1372,2.15202995 108.784255,2.15202995 C113.431311,2.15202995 121.021352,5.73800084 123.061986,14.5306762 C124.422409,20.3924598 123.808169,33.8031259 121.219266,54.7626747 C126.769045,90.1250157 135.280074,107.806186 146.752352,107.806186 C158.22463,107.806186 161.816519,95.1527572 157.528019,69.8458991 L162.48704,65.5071652 L171.469185,67.3571951 L176.617174,60.55772 L159.372976,60.55772 C159.372976,48.2898071 160.410998,41.4728086 162.48704,40.1067244 C164.563083,38.7406403 166.356977,37.9837759 167.868724,37.8361315 L162.48704,33.886642 C163.674522,32.5913974 165.468416,32.5913974 167.868724,33.886642 C170.269031,35.1818866 172.281712,35.1818866 173.906765,33.886642 C166.293615,30.0165674 162.48704,26.3519273 162.48704,22.8927219 C162.48704,19.4335164 163.017046,12.5199525 164.077058,2.15202995 L167.868724,0 C180.25789,13.45056 186.452472,25.3937297 186.452472,35.829509 C186.452472,51.4831779 182.072656,84.2322864 182.072656,90.1760947 C182.072656,96.119903 181.845671,110.08349 190.035043,114.937861 C198.224416,119.792232 208.566239,118.529425 211.158124,114.937861 C213.750009,111.346298 215.335554,102.587178 217.748534,100.520155 C219.357187,99.1421405 221.572254,98.1735033 224.393734,97.6142439 C222.121641,95.6874091 221.553618,93.208026 222.689664,90.1760947 C223.82571,87.1441634 227.721365,85.6281977 234.376628,85.6281977 C226.205891,82.0109083 221.391858,78.0614189 219.934528,73.7797293 C218.477199,69.4980398 219.9636,61.5233745 224.393734,49.8557332 C226.130602,48.2517774 227.771309,48.2517774 229.315855,49.8557332 C231.632674,52.2616669 239.067292,67.6491284 242.741551,69.8458991 C246.415811,72.0426698 245.857851,78.8701079 245.857851,81.5064564 C245.857851,84.1428049 222.689664,136.764635 222.689664,141.730858 C222.689664,146.697081 220.974413,154.438349 224.393734,156.952779 C227.813054,159.467209 250.95776,149.70254 253.668169,146.697081 C256.378579,143.691621 257.4453,136.67739 260.430775,136.67739 C262.421093,136.67739 266.58585,136.67739 272.925048,136.67739 C266.530688,135.087603 262.849719,132.936318 261.882142,130.223538 C260.430775,126.154367 259.375236,119.433188 261.882142,114.937861 C264.389047,110.442535 266.198223,105.685475 269.561635,105.685475 C272.925048,105.685475 271.038719,110.938038 272.925048,114.937861 C274.811377,118.937684 282,123.769685 282,130.223538 C282,136.67739 267.119583,165.254424 263.775179,168.258765 C260.430775,171.263107 242.709125,185.531982 238.542877,192.433869 C234.376628,199.335756 222.523059,245.804547 217.748534,254.075993 C212.974009,262.347438 207.176371,269.641299 202.877062,271.435403 C200.010856,272.631472 195.730183,274.818176 190.035043,277.995515 C193.99406,284.491871 195.369765,290.634403 194.162156,296.42311 C192.350744,305.106171 185.109567,307.247015 182.072656,315.184024 C180.048049,320.475363 178.229555,350.080688 176.617174,404 L89.0734057,384.867738 Z" id="Path-6" fill="#6000D6"></path>
    </g>
</svg>