<?xml version="1.0" encoding="UTF-8"?>
<svg width="46px" height="46px" viewBox="0 0 46 46" version="1.1" xmlns="http://www.w3.org/2000/svg" xmlns:xlink="http://www.w3.org/1999/xlink">
    <!-- Generator: Sketch 57.1 (83088) - https://sketch.com -->
    <title>Icon / Sword - White</title>
    <desc>Created with Sketch.</desc>
    <g id="Icon-/-Sword---White" stroke="none" stroke-width="1" fill="none" fill-rule="evenodd">
        <path d="M25,43 C25.5522847,43 26,43.4477153 26,44 C26,44.5522847 25.5522847,45 25,45 L20,45 C19.4477153,45 19,44.5522847 19,44 C19,43.4477153 19.4477153,43 20,43 L25,43 Z M30,31 L30,33.0869565 L29.997,33.086 L29.9945143,33.1492623 C29.9181651,34.1841222 29.0543618,35 28,35 L24.5,35 L24.5,42 L20.5,42 L20.5,35 L17,35 C15.9244094,35 15.0471281,34.1509373 15.0018366,33.0864926 L15,33.0869565 L15,31 L30,31 Z M22.4430836,0 L28,7.62713872 L28,30 L23.2038375,30 L23.2038375,7.62713872 C23.0701847,7.36587821 22.8355722,7.23524796 22.5,7.23524796 C22.1644278,7.23524796 21.9511306,7.36587821 21.8601084,7.62713872 L21.8601084,30 L17,30 L17,7.62713872 L22.4430836,0 Z" id="Combined-Shape" fill="#FFFFFF"></path>
    </g>
</svg>